<?xml version="1.0" encoding="utf-8"?>
<!-- Generator: Adobe Illustrator 23.0.2, SVG Export Plug-In . SVG Version: 6.00 Build 0)  -->
<svg version="1.1" id="Warstwa_1" xmlns="http://www.w3.org/2000/svg" xmlns:xlink="http://www.w3.org/1999/xlink" x="0px" y="0px"
	 viewBox="0 0 769 113.9" style="enable-background:new 0 0 769 113.9;" xml:space="preserve">
<style type="text/css">
	.st0{fill:none;}
	.st1{fill:#3D3B3E;}
	.st2{fill:#FF3D00;}
</style>
<g>
	<line class="st0" x1="903.8" y1="73.5" x2="903.8" y2="217.5"/>
</g>
<g>
	<rect y="18.9" class="st0" width="769" height="122"/>
	<path class="st1" d="M108.9,90.2H97.3L82.9,46.9l-7.5,43.3H62.6l12-69.6h12.8l15.7,47.2l15.7-47.2h12.8l12,69.6h-12.8l-7.5-43.3
		L108.9,90.2z"/>
	<path class="st1" d="M175.6,92c-12.6,0-22.9-10.3-22.9-22.9V20.6h12.6v48.5c0,5.7,4.6,10.3,10.3,10.3c5.7,0,10.3-4.6,10.3-10.3
		V20.6h12.6v48.5C198.5,81.7,188.2,92,175.6,92z"/>
	<path class="st1" d="M250.2,90.2h-42.5l24.4-57h-22.4V20.6h42.1l-24.5,57h22.9V90.2z"/>
	<path class="st1" d="M331,55.4c0,20.2-16.4,36.5-36.5,36.5c-20.2,0-36.5-16.4-36.5-36.5s16.4-36.5,36.5-36.5
		C314.6,18.9,331,35.2,331,55.4z M270.5,55.4c0,13.2,10.7,23.9,23.9,23.9c13.2,0,23.9-10.7,23.9-23.9s-10.7-23.9-23.9-23.9
		C281.2,31.5,270.5,42.2,270.5,55.4z"/>
	<path class="st1" d="M361,78.6l10.8-6.7c1.9,4.5,6.4,7.5,11.3,7.5c4.4,0,8-3,8-6.6c0-2.2-0.9-4.3-2.4-5.8l-18.4-17.4
		c-3.7-3.5-5.7-8.4-5.7-13.4c0-9.5,8.4-17.2,18.5-17.2c6,0,11.7,2.3,15.9,6.5l4.1,4l-9,9l-4.1-3.9c-1.8-1.8-4.4-2.9-7-2.9
		c-3.2,0-5.9,2-5.9,4.5c0,1.6,0.7,3.1,1.8,4.3l18.4,17.4c4.1,3.9,6.4,9.4,6.4,15c0,10.6-9.2,19.2-20.6,19.2
		C373.9,92,365.3,86.8,361,78.6z"/>
	<path class="st1" d="M447.4,20.6v12.6h-13v57h-12.5v-57h-13V20.6H447.4z"/>
	<path class="st1" d="M469.5,75.9L464,90.2h-13.6l26.9-69.6h13.6l26.8,69.6h-13.5l-5.6-14.4H469.5z M493.8,63.3l-9.7-25.1l-9.7,25.1
		H493.8z"/>
	<path class="st1" d="M588.8,32.5l-9.8,7.9c-4.4-5.5-11-9-18.6-9c-13.2,0-23.9,10.7-23.9,23.9s10.7,23.9,23.9,23.9
		c7.6,0,14.3-3.5,18.6-9l9.8,7.9c-6.7,8.4-17,13.7-28.5,13.7c-20.2,0-36.5-16.4-36.5-36.5s16.4-36.5,36.5-36.5
		C571.8,18.9,582.1,24.2,588.8,32.5z"/>
	<path class="st1" d="M613.7,92c-7.7,0-14.9-3.7-19.3-9.9l9.2-9.2c1.7,4,5.7,6.5,10.1,6.5c2,0,3.7-1.7,3.7-3.7V20.6H630v55.1
		C630,84.7,622.7,92,613.7,92z"/>
	<path class="st1" d="M658.2,75.9l-5.5,14.4h-13.6L666,20.6h13.6l26.8,69.6h-13.5l-5.6-14.4H658.2z M682.5,63.3l-9.7-25.1l-9.7,25.1
		H682.5z"/>
</g>
<g>
	<rect x="145.4" y="-45" class="st0" width="298.5" height="245.2"/>
	<path class="st2" d="M281.6,54.6c0-7.2,5.8-13,13-13c7.3,0,13.1,5.8,13.1,13c0,7.3-5.8,13.1-13.1,13.1
		C287.4,67.7,281.6,61.9,281.6,54.6z"/>
</g>
</svg>
